<svg width="1280" height="720" viewBox="0 0 1280 720" xmlns="http://www.w3.org/2000/svg">
  <defs>
    <linearGradient id="row-grad-05" x1="0%" y1="0%" x2="100%" y2="0%">
      <stop offset="0%" stop-color="#1E293B"/>
      <stop offset="100%" stop-color="#334155" stop-opacity="0.6"/>
    </linearGradient>
    <radialGradient id="orb-05" cx="50%" cy="50%" r="50%">
      <stop offset="0%" stop-color="#3B82F6" stop-opacity="0.1"/>
      <stop offset="100%" stop-color="#3B82F6" stop-opacity="0"/>
    </radialGradient>
  </defs>
  <g id="background"><rect x="0" y="0" width="1280" height="720" fill="#0F172A"/></g>
  <g id="decor-05">
    <circle cx="1200" cy="60" r="320" fill="url(#orb-05)"/>
    <circle cx="60" cy="600" r="180" fill="url(#orb-05)" opacity="0.55"/>
  </g>
  <g id="chrome-stripe">
    <rect x="0" y="0" width="6" height="720" fill="#3B82F6" />
  </g>
  <g id="chrome-footer">
    <rect x="0" y="688" width="1280" height="32" fill="#1E293B" />
    <text x="1184" y="710" font-family="Aptos, Arial, sans-serif" font-size="12" fill="#334155" text-anchor="end">05 / 08</text>
  </g>
  <g id="content-title-05">
    <text x="96" y="108" font-family="Aptos, Arial, sans-serif" font-size="56" font-weight="700" fill="#F1F5F9">Key Metrics</text>
    <rect x="96" y="120" width="80" height="4" fill="#3B82F6"/>
  </g>
  <g id="content-body-05">
    <rect x="80" y="156" width="1120" height="72" rx="10" fill="url(#row-grad-05)"/>
    <rect x="80" y="156" width="4" height="72" fill="#3B82F6"/>
    <circle cx="120" cy="192" r="16" fill="#3B82F6"/>
    <text x="120" y="198" font-family="Aptos, Arial, sans-serif" font-size="14" font-weight="700" fill="#0F172A" text-anchor="middle">&#x2022;</text>
    <text x="160" y="200" font-family="Aptos, Arial, sans-serif" font-size="22" fill="#F1F5F9">98% uptime SLA</text>
    <rect x="80" y="238" width="1120" height="72" rx="10" fill="url(#row-grad-05)"/>
    <rect x="80" y="238" width="4" height="72" fill="#3B82F6"/>
    <circle cx="120" cy="274" r="16" fill="#3B82F6"/>
    <text x="120" y="280" font-family="Aptos, Arial, sans-serif" font-size="14" font-weight="700" fill="#0F172A" text-anchor="middle">&#x2022;</text>
    <text x="160" y="282" font-family="Aptos, Arial, sans-serif" font-size="22" fill="#F1F5F9">10x faster than legacy tools</text>
    <rect x="80" y="320" width="1120" height="72" rx="10" fill="url(#row-grad-05)"/>
    <rect x="80" y="320" width="4" height="72" fill="#3B82F6"/>
    <circle cx="120" cy="356" r="16" fill="#3B82F6"/>
    <text x="120" y="362" font-family="Aptos, Arial, sans-serif" font-size="14" font-weight="700" fill="#0F172A" text-anchor="middle">&#x2022;</text>
    <text x="160" y="364" font-family="Aptos, Arial, sans-serif" font-size="22" fill="#F1F5F9">60% reduction in analyst workload</text>
    <rect x="80" y="402" width="1120" height="72" rx="10" fill="url(#row-grad-05)"/>
    <rect x="80" y="402" width="4" height="72" fill="#3B82F6"/>
    <circle cx="120" cy="438" r="16" fill="#3B82F6"/>
    <text x="120" y="444" font-family="Aptos, Arial, sans-serif" font-size="14" font-weight="700" fill="#0F172A" text-anchor="middle">&#x2022;</text>
    <text x="160" y="446" font-family="Aptos, Arial, sans-serif" font-size="22" fill="#F1F5F9">500+ enterprise customers onboarded</text>
  </g>
</svg>